<?xml version="1.0" encoding="UTF-8" standalone="no"?>
<svg
   width="680.764"
   height="528.354"
   viewBox="0 0 180.119 139.794"
   version="1.1"
   id="svg3"
   sodipodi:docname="Placeholder_Media.svg"
   xml:space="preserve"
   inkscape:version="1.3.2 (091e20ef0f, 2023-11-25)"
   xmlns:inkscape="http://www.inkscape.org/namespaces/inkscape"
   xmlns:sodipodi="http://sodipodi.sourceforge.net/DTD/sodipodi-0.dtd"
   xmlns="http://www.w3.org/2000/svg"
   xmlns:svg="http://www.w3.org/2000/svg"><defs
     id="defs3" /><sodipodi:namedview
     id="namedview3"
     pagecolor="#505050"
     bordercolor="#ffffff"
     borderopacity="1"
     inkscape:showpageshadow="0"
     inkscape:pageopacity="0"
     inkscape:pagecheckerboard="1"
     inkscape:deskcolor="#d1d1d1"
     inkscape:zoom="1.063511"
     inkscape:cx="284.90537"
     inkscape:cy="157.96734"
     inkscape:current-layer="g3" /><g
     transform="translate(-13.59 -66.639)"
     paint-order="fill markers stroke"
     id="g3"><path
       fill="#d0d0d0"
       d="M13.591 66.639H193.71v139.794H13.591z"
       id="path1"
       style="fill:#242424;fill-opacity:1" /><path
       fill="none"
       d="M26.111 77.634h152.614v116.099H26.111z"
       id="path3" /><path
       d="m 96.866248,137.50505 v -15.5046 c 0,-2.13189 1.744264,-3.87616 3.876152,-3.87616 h 17.44268 c 2.13188,0 3.87614,1.74427 3.87614,3.87616 v 11.62845 h -6.6476 l -2.48073,-3.37225 c -0.11632,-0.17441 -0.34889,-0.17441 -0.46514,0 l -3.85676,5.31032 c -0.11632,0.11625 -0.34889,0.13565 -0.46514,0 l -2.77146,-3.39163 c -0.11624,-0.13566 -0.32947,-0.13566 -0.44572,0 l -4.08934,5.15528 c -0.15507,0.17441 -0.019,0.46514 0.21316,0.46514 h 12.2874 v 3.58544 H 100.7424 c -2.151262,0 -3.876151,-1.72489 -3.876151,-3.87615 m -5.814226,17.44266 v -1.93808 h -3.87615 v 1.93808 h -3.876151 v -38.76149 h 3.87615 v 1.93807 h 3.87615 v -1.93807 h 4.632002 c -1.647368,1.43417 -2.693926,3.48853 -2.693926,5.81423 v 15.50459 c 0,4.28314 3.469152,7.75229 7.752302,7.75229 h 9.10895 c -1.99622,1.60861 -3.29472,4.03121 -3.29472,6.78327 0,1.02718 0.21315,1.99621 0.54263,2.9071 H 91.052001 m -3.87615,-29.07111 h 3.87615 v -3.87614 h -3.87615 v 3.87614 m 0,7.7523 h 3.87615 v -3.87615 h -3.87615 v 3.87615 m 0,7.7523 h 3.87615 v -3.87615 h -3.87615 v 3.87615 m 3.87615,7.75229 v -3.87615 h -3.87615 v 3.87615 h 3.87615 m 32.947279,-11.62844 v 3.87615 h -3.87616 v 10.65941 c 0,2.67454 -2.17064,4.84518 -4.84518,4.84518 -2.67454,0 -4.84518,-2.17064 -4.84518,-4.84518 0,-2.67454 2.17064,-4.84519 4.84518,-4.84519 0.69771,0 1.33727,0.13566 1.93808,0.40697 v -10.09736 z"
       id="path1-6"
       style="stroke-width:1.93808;fill:#ffffff;fill-opacity:1" /></g></svg>
